<mxfile host="app.diagrams.net" agent="Mozilla/5.0 (Windows NT 10.0; Win64; x64) AppleWebKit/537.36 (KHTML, like Gecko) Chrome/127.0.0.0 Safari/537.36" version="26.0.11">
  <diagram name="第 1 页" id="OpzLglPuzwsaN2uVLHSr">
    <mxGraphModel dx="1400" dy="721" grid="1" gridSize="10" guides="1" tooltips="1" connect="1" arrows="1" fold="1" page="1" pageScale="1" pageWidth="827" pageHeight="1169" math="0" shadow="0">
      <root>
        <mxCell id="0" />
        <mxCell id="1" parent="0" />
        <mxCell id="Vu5gZjtnMFJCDZPlwX4_-3" value="" style="edgeStyle=orthogonalEdgeStyle;rounded=0;orthogonalLoop=1;jettySize=auto;html=1;" edge="1" parent="1" source="Vu5gZjtnMFJCDZPlwX4_-1" target="Vu5gZjtnMFJCDZPlwX4_-2">
          <mxGeometry relative="1" as="geometry" />
        </mxCell>
        <mxCell id="Vu5gZjtnMFJCDZPlwX4_-1" value="开始" style="ellipse;whiteSpace=wrap;html=1;" vertex="1" parent="1">
          <mxGeometry x="470" y="90" width="80" height="40" as="geometry" />
        </mxCell>
        <mxCell id="Vu5gZjtnMFJCDZPlwX4_-10" value="" style="edgeStyle=orthogonalEdgeStyle;rounded=0;orthogonalLoop=1;jettySize=auto;html=1;" edge="1" parent="1" source="Vu5gZjtnMFJCDZPlwX4_-2">
          <mxGeometry relative="1" as="geometry">
            <mxPoint x="510" y="310" as="targetPoint" />
          </mxGeometry>
        </mxCell>
        <mxCell id="Vu5gZjtnMFJCDZPlwX4_-11" value="否" style="edgeLabel;html=1;align=center;verticalAlign=middle;resizable=0;points=[];" vertex="1" connectable="0" parent="Vu5gZjtnMFJCDZPlwX4_-10">
          <mxGeometry x="-0.2222" y="-1" relative="1" as="geometry">
            <mxPoint as="offset" />
          </mxGeometry>
        </mxCell>
        <mxCell id="Vu5gZjtnMFJCDZPlwX4_-12" style="edgeStyle=orthogonalEdgeStyle;rounded=0;orthogonalLoop=1;jettySize=auto;html=1;exitX=1;exitY=0.5;exitDx=0;exitDy=0;entryX=1;entryY=0.5;entryDx=0;entryDy=0;" edge="1" parent="1" source="Vu5gZjtnMFJCDZPlwX4_-2" target="Vu5gZjtnMFJCDZPlwX4_-4">
          <mxGeometry relative="1" as="geometry">
            <Array as="points">
              <mxPoint x="770" y="220" />
              <mxPoint x="770" y="1055" />
            </Array>
          </mxGeometry>
        </mxCell>
        <mxCell id="Vu5gZjtnMFJCDZPlwX4_-13" value="是" style="edgeLabel;html=1;align=center;verticalAlign=middle;resizable=0;points=[];" vertex="1" connectable="0" parent="Vu5gZjtnMFJCDZPlwX4_-12">
          <mxGeometry x="-0.0786" y="-1" relative="1" as="geometry">
            <mxPoint y="1" as="offset" />
          </mxGeometry>
        </mxCell>
        <mxCell id="Vu5gZjtnMFJCDZPlwX4_-2" value="是否是白名单" style="rhombus;whiteSpace=wrap;html=1;" vertex="1" parent="1">
          <mxGeometry x="470" y="180" width="80" height="80" as="geometry" />
        </mxCell>
        <mxCell id="Vu5gZjtnMFJCDZPlwX4_-4" value="结束，跳转到目标页面" style="whiteSpace=wrap;html=1;rounded=1;" vertex="1" parent="1">
          <mxGeometry x="454" y="1030" width="110" height="50" as="geometry" />
        </mxCell>
        <mxCell id="Vu5gZjtnMFJCDZPlwX4_-15" value="" style="edgeStyle=orthogonalEdgeStyle;rounded=0;orthogonalLoop=1;jettySize=auto;html=1;exitX=0.5;exitY=0;exitDx=0;exitDy=0;" edge="1" parent="1" source="Vu5gZjtnMFJCDZPlwX4_-14" target="Vu5gZjtnMFJCDZPlwX4_-2">
          <mxGeometry relative="1" as="geometry" />
        </mxCell>
        <mxCell id="Vu5gZjtnMFJCDZPlwX4_-17" value="" style="edgeStyle=orthogonalEdgeStyle;rounded=0;orthogonalLoop=1;jettySize=auto;html=1;" edge="1" parent="1" source="Vu5gZjtnMFJCDZPlwX4_-14" target="Vu5gZjtnMFJCDZPlwX4_-16">
          <mxGeometry relative="1" as="geometry" />
        </mxCell>
        <mxCell id="Vu5gZjtnMFJCDZPlwX4_-18" value="否" style="edgeLabel;html=1;align=center;verticalAlign=middle;resizable=0;points=[];" vertex="1" connectable="0" parent="Vu5gZjtnMFJCDZPlwX4_-17">
          <mxGeometry x="0.0762" y="-2" relative="1" as="geometry">
            <mxPoint as="offset" />
          </mxGeometry>
        </mxCell>
        <mxCell id="Vu5gZjtnMFJCDZPlwX4_-22" value="" style="edgeStyle=orthogonalEdgeStyle;rounded=0;orthogonalLoop=1;jettySize=auto;html=1;entryX=0.5;entryY=0;entryDx=0;entryDy=0;" edge="1" parent="1" source="Vu5gZjtnMFJCDZPlwX4_-14" target="Vu5gZjtnMFJCDZPlwX4_-25">
          <mxGeometry relative="1" as="geometry">
            <mxPoint x="510" y="470" as="targetPoint" />
          </mxGeometry>
        </mxCell>
        <mxCell id="Vu5gZjtnMFJCDZPlwX4_-23" value="是" style="edgeLabel;html=1;align=center;verticalAlign=middle;resizable=0;points=[];" vertex="1" connectable="0" parent="Vu5gZjtnMFJCDZPlwX4_-22">
          <mxGeometry x="-0.2345" y="2" relative="1" as="geometry">
            <mxPoint as="offset" />
          </mxGeometry>
        </mxCell>
        <mxCell id="Vu5gZjtnMFJCDZPlwX4_-14" value="是否已登录" style="rhombus;whiteSpace=wrap;html=1;" vertex="1" parent="1">
          <mxGeometry x="470" y="310" width="80" height="80" as="geometry" />
        </mxCell>
        <mxCell id="Vu5gZjtnMFJCDZPlwX4_-19" style="edgeStyle=orthogonalEdgeStyle;rounded=0;orthogonalLoop=1;jettySize=auto;html=1;entryX=0;entryY=0.5;entryDx=0;entryDy=0;" edge="1" parent="1" source="Vu5gZjtnMFJCDZPlwX4_-16" target="Vu5gZjtnMFJCDZPlwX4_-1">
          <mxGeometry relative="1" as="geometry">
            <mxPoint x="360" y="160" as="targetPoint" />
            <Array as="points">
              <mxPoint x="350" y="110" />
            </Array>
          </mxGeometry>
        </mxCell>
        <mxCell id="Vu5gZjtnMFJCDZPlwX4_-20" value="登录成功" style="edgeLabel;html=1;align=center;verticalAlign=middle;resizable=0;points=[];" vertex="1" connectable="0" parent="Vu5gZjtnMFJCDZPlwX4_-19">
          <mxGeometry x="0.2969" y="-2" relative="1" as="geometry">
            <mxPoint as="offset" />
          </mxGeometry>
        </mxCell>
        <mxCell id="Vu5gZjtnMFJCDZPlwX4_-16" value="跳转到登录页面" style="whiteSpace=wrap;html=1;" vertex="1" parent="1">
          <mxGeometry x="290" y="320" width="120" height="60" as="geometry" />
        </mxCell>
        <mxCell id="Vu5gZjtnMFJCDZPlwX4_-28" value="" style="edgeStyle=orthogonalEdgeStyle;rounded=0;orthogonalLoop=1;jettySize=auto;html=1;" edge="1" parent="1" source="Vu5gZjtnMFJCDZPlwX4_-25" target="Vu5gZjtnMFJCDZPlwX4_-27">
          <mxGeometry relative="1" as="geometry" />
        </mxCell>
        <mxCell id="Vu5gZjtnMFJCDZPlwX4_-25" value="获取用户信息" style="rounded=0;whiteSpace=wrap;html=1;" vertex="1" parent="1">
          <mxGeometry x="450" y="480" width="120" height="60" as="geometry" />
        </mxCell>
        <mxCell id="Vu5gZjtnMFJCDZPlwX4_-30" value="" style="edgeStyle=orthogonalEdgeStyle;rounded=0;orthogonalLoop=1;jettySize=auto;html=1;entryX=0.5;entryY=0;entryDx=0;entryDy=0;" edge="1" parent="1" source="Vu5gZjtnMFJCDZPlwX4_-27" target="Vu5gZjtnMFJCDZPlwX4_-29">
          <mxGeometry relative="1" as="geometry" />
        </mxCell>
        <mxCell id="Vu5gZjtnMFJCDZPlwX4_-50" value="是" style="edgeLabel;html=1;align=center;verticalAlign=middle;resizable=0;points=[];" vertex="1" connectable="0" parent="Vu5gZjtnMFJCDZPlwX4_-30">
          <mxGeometry x="0.0452" y="-1" relative="1" as="geometry">
            <mxPoint as="offset" />
          </mxGeometry>
        </mxCell>
        <mxCell id="Vu5gZjtnMFJCDZPlwX4_-39" value="" style="edgeStyle=orthogonalEdgeStyle;rounded=0;orthogonalLoop=1;jettySize=auto;html=1;" edge="1" parent="1" source="Vu5gZjtnMFJCDZPlwX4_-27" target="Vu5gZjtnMFJCDZPlwX4_-38">
          <mxGeometry relative="1" as="geometry" />
        </mxCell>
        <mxCell id="Vu5gZjtnMFJCDZPlwX4_-40" value="否" style="edgeLabel;html=1;align=center;verticalAlign=middle;resizable=0;points=[];" vertex="1" connectable="0" parent="Vu5gZjtnMFJCDZPlwX4_-39">
          <mxGeometry x="-0.1202" relative="1" as="geometry">
            <mxPoint as="offset" />
          </mxGeometry>
        </mxCell>
        <mxCell id="Vu5gZjtnMFJCDZPlwX4_-27" value="是否存在需要跳转的hash" style="rhombus;whiteSpace=wrap;html=1;rounded=0;" vertex="1" parent="1">
          <mxGeometry x="470" y="610" width="80" height="80" as="geometry" />
        </mxCell>
        <mxCell id="Vu5gZjtnMFJCDZPlwX4_-33" value="" style="edgeStyle=orthogonalEdgeStyle;rounded=0;orthogonalLoop=1;jettySize=auto;html=1;exitX=1;exitY=0.5;exitDx=0;exitDy=0;" edge="1" parent="1" source="Vu5gZjtnMFJCDZPlwX4_-29" target="Vu5gZjtnMFJCDZPlwX4_-32">
          <mxGeometry relative="1" as="geometry" />
        </mxCell>
        <mxCell id="Vu5gZjtnMFJCDZPlwX4_-36" value="否" style="edgeLabel;html=1;align=center;verticalAlign=middle;resizable=0;points=[];" vertex="1" connectable="0" parent="Vu5gZjtnMFJCDZPlwX4_-33">
          <mxGeometry x="-0.3365" relative="1" as="geometry">
            <mxPoint as="offset" />
          </mxGeometry>
        </mxCell>
        <mxCell id="Vu5gZjtnMFJCDZPlwX4_-35" value="" style="edgeStyle=orthogonalEdgeStyle;rounded=0;orthogonalLoop=1;jettySize=auto;html=1;entryX=0;entryY=0.5;entryDx=0;entryDy=0;exitX=0.5;exitY=1;exitDx=0;exitDy=0;" edge="1" parent="1" source="Vu5gZjtnMFJCDZPlwX4_-29" target="Vu5gZjtnMFJCDZPlwX4_-4">
          <mxGeometry relative="1" as="geometry">
            <mxPoint x="107.97238095238097" y="687.527619047619" as="sourcePoint" />
            <mxPoint x="312.02" y="1092.48" as="targetPoint" />
            <Array as="points">
              <mxPoint x="208" y="690" />
              <mxPoint x="208" y="1055" />
            </Array>
          </mxGeometry>
        </mxCell>
        <mxCell id="Vu5gZjtnMFJCDZPlwX4_-37" value="是" style="edgeLabel;html=1;align=center;verticalAlign=middle;resizable=0;points=[];" vertex="1" connectable="0" parent="Vu5gZjtnMFJCDZPlwX4_-35">
          <mxGeometry x="-0.0275" y="-3" relative="1" as="geometry">
            <mxPoint as="offset" />
          </mxGeometry>
        </mxCell>
        <mxCell id="Vu5gZjtnMFJCDZPlwX4_-29" value="是否有权限跳转" style="rhombus;whiteSpace=wrap;html=1;rounded=0;" vertex="1" parent="1">
          <mxGeometry x="170" y="610" width="80" height="80" as="geometry" />
        </mxCell>
        <mxCell id="Vu5gZjtnMFJCDZPlwX4_-32" value="跳转到无权限页面" style="whiteSpace=wrap;html=1;rounded=0;" vertex="1" parent="1">
          <mxGeometry x="250" y="780" width="120" height="60" as="geometry" />
        </mxCell>
        <mxCell id="Vu5gZjtnMFJCDZPlwX4_-46" style="edgeStyle=orthogonalEdgeStyle;rounded=0;orthogonalLoop=1;jettySize=auto;html=1;exitX=0.5;exitY=1;exitDx=0;exitDy=0;entryX=0.5;entryY=0;entryDx=0;entryDy=0;" edge="1" parent="1" source="Vu5gZjtnMFJCDZPlwX4_-38" target="Vu5gZjtnMFJCDZPlwX4_-4">
          <mxGeometry relative="1" as="geometry" />
        </mxCell>
        <mxCell id="Vu5gZjtnMFJCDZPlwX4_-49" value="是" style="edgeLabel;html=1;align=center;verticalAlign=middle;resizable=0;points=[];" vertex="1" connectable="0" parent="Vu5gZjtnMFJCDZPlwX4_-46">
          <mxGeometry x="-0.2872" relative="1" as="geometry">
            <mxPoint as="offset" />
          </mxGeometry>
        </mxCell>
        <mxCell id="Vu5gZjtnMFJCDZPlwX4_-56" style="edgeStyle=orthogonalEdgeStyle;rounded=0;orthogonalLoop=1;jettySize=auto;html=1;entryX=1;entryY=0.5;entryDx=0;entryDy=0;" edge="1" parent="1" source="Vu5gZjtnMFJCDZPlwX4_-38" target="Vu5gZjtnMFJCDZPlwX4_-32">
          <mxGeometry relative="1" as="geometry">
            <Array as="points">
              <mxPoint x="380" y="810" />
            </Array>
          </mxGeometry>
        </mxCell>
        <mxCell id="Vu5gZjtnMFJCDZPlwX4_-57" value="否" style="edgeLabel;html=1;align=center;verticalAlign=middle;resizable=0;points=[];" vertex="1" connectable="0" parent="Vu5gZjtnMFJCDZPlwX4_-56">
          <mxGeometry x="-0.044" y="-1" relative="1" as="geometry">
            <mxPoint as="offset" />
          </mxGeometry>
        </mxCell>
        <mxCell id="Vu5gZjtnMFJCDZPlwX4_-38" value="是否有权限" style="rhombus;whiteSpace=wrap;html=1;rounded=0;" vertex="1" parent="1">
          <mxGeometry x="470" y="770" width="80" height="80" as="geometry" />
        </mxCell>
      </root>
    </mxGraphModel>
  </diagram>
</mxfile>
